<svg width="1032" height="761" viewBox="0 0 1032 761" fill="none" xmlns="http://www.w3.org/2000/svg">
<g clip-path="url(#clip0_122_130)" filter="url(#filter0_d_122_130)">
<rect width="1024" height="753" transform="translate(4)" fill="#121214"/>
<g opacity="0.2" filter="url(#filter1_f_122_130)">
<ellipse cx="516.5" cy="34" rx="670.5" ry="350" fill="#FF0000"/>
</g>
<path d="M37.0349 270C38.5302 270 39.6622 270.63 40.4308 271.891C41.2134 273.138 41.6047 274.953 41.6047 277.336C41.6047 279.719 41.2134 281.541 40.4308 282.802C39.6622 284.063 38.5302 284.693 37.0349 284.693C35.5536 284.693 34.4216 284.063 33.639 282.802C32.8564 281.541 32.4651 279.719 32.4651 277.336C32.4651 274.967 32.8564 273.152 33.639 271.891C34.4216 270.63 35.5536 270 37.0349 270ZM33.9534 277.336C33.9534 279.026 34.1072 280.35 34.4146 281.306L39.0683 272.099C38.5791 271.448 37.9013 271.122 37.0349 271.122C36.0706 271.122 35.316 271.635 34.771 272.66C34.2259 273.672 33.9534 275.23 33.9534 277.336ZM37.0349 283.55C38.0131 283.55 38.7748 283.044 39.3198 282.033C39.8648 281.008 40.1373 279.442 40.1373 277.336C40.1373 275.549 39.9627 274.163 39.6133 273.18L34.9596 282.469C35.4627 283.19 36.1545 283.55 37.0349 283.55Z" fill="url(#paint0_linear_122_130)" fill-opacity="0.6"/>
<path d="M38.2926 307.135H41.3741V308.236H33.3874V307.135H36.9511V295.455L33.5551 297.471L32.9682 296.536L37.1607 293.959H38.2926V307.135Z" fill="url(#paint1_linear_122_130)" fill-opacity="0.6"/>
<path d="M37.0349 317.502C38.5302 317.502 39.6622 318.133 40.4308 319.393C41.2134 320.64 41.6047 322.455 41.6047 324.838C41.6047 327.221 41.2134 329.043 40.4308 330.304C39.6622 331.565 38.5302 332.195 37.0349 332.195C35.5536 332.195 34.4216 331.565 33.639 330.304C32.8564 329.043 32.4651 327.221 32.4651 324.838C32.4651 322.469 32.8564 320.654 33.639 319.393C34.4216 318.133 35.5536 317.502 37.0349 317.502ZM33.9534 324.838C33.9534 326.529 34.1072 327.852 34.4146 328.808L39.0683 319.601C38.5791 318.95 37.9013 318.624 37.0349 318.624C36.0706 318.624 35.316 319.137 34.771 320.162C34.2259 321.174 33.9534 322.732 33.9534 324.838ZM37.0349 331.052C38.0131 331.052 38.7748 330.546 39.3198 329.535C39.8648 328.51 40.1373 326.944 40.1373 324.838C40.1373 323.051 39.9627 321.665 39.6133 320.682L34.9596 329.971C35.4627 330.692 36.1545 331.052 37.0349 331.052Z" fill="url(#paint2_linear_122_130)" fill-opacity="0.6"/>
<path d="M38.2926 354.637H41.3741V355.738H33.3874V354.637H36.9511V342.957L33.5551 344.973L32.9682 344.038L37.1607 341.461H38.2926V354.637Z" fill="url(#paint3_linear_122_130)" fill-opacity="0.6"/>
<path d="M38.2926 378.388H41.3741V379.489H33.3874V378.388H36.9511V366.708L33.5551 368.724L32.9682 367.789L37.1607 365.212H38.2926V378.388Z" fill="url(#paint4_linear_122_130)" fill-opacity="0.6"/>
<path d="M37.0349 388.755C38.5302 388.755 39.6622 389.386 40.4308 390.646C41.2134 391.893 41.6047 393.708 41.6047 396.091C41.6047 398.474 41.2134 400.296 40.4308 401.557C39.6622 402.818 38.5302 403.448 37.0349 403.448C35.5536 403.448 34.4216 402.818 33.639 401.557C32.8564 400.296 32.4651 398.474 32.4651 396.091C32.4651 393.722 32.8564 391.907 33.639 390.646C34.4216 389.386 35.5536 388.755 37.0349 388.755ZM33.9534 396.091C33.9534 397.782 34.1072 399.105 34.4146 400.061L39.0683 390.854C38.5791 390.203 37.9013 389.878 37.0349 389.878C36.0706 389.878 35.316 390.39 34.771 391.415C34.2259 392.427 33.9534 393.985 33.9534 396.091ZM37.0349 402.305C38.0131 402.305 38.7748 401.8 39.3198 400.788C39.8648 399.763 40.1373 398.197 40.1373 396.091C40.1373 394.304 39.9627 392.919 39.6133 391.935L34.9596 401.225C35.4627 401.945 36.1545 402.305 37.0349 402.305Z" fill="url(#paint5_linear_122_130)" fill-opacity="0.6"/>
<path d="M38.2926 425.89H41.3741V426.992H33.3874V425.89H36.9511V414.21L33.5551 416.226L32.9682 415.291L37.1607 412.714H38.2926V425.89Z" fill="url(#paint6_linear_122_130)" fill-opacity="0.6"/>
<path d="M37.0349 436.257C38.5302 436.257 39.6622 436.888 40.4308 438.149C41.2134 439.396 41.6047 441.211 41.6047 443.594C41.6047 445.977 41.2134 447.798 40.4308 449.059C39.6622 450.32 38.5302 450.95 37.0349 450.95C35.5536 450.95 34.4216 450.32 33.639 449.059C32.8564 447.798 32.4651 445.977 32.4651 443.594C32.4651 441.224 32.8564 439.409 33.639 438.149C34.4216 436.888 35.5536 436.257 37.0349 436.257ZM33.9534 443.594C33.9534 445.284 34.1072 446.607 34.4146 447.563L39.0683 438.356C38.5791 437.705 37.9013 437.38 37.0349 437.38C36.0706 437.38 35.316 437.892 34.771 438.918C34.2259 439.929 33.9534 441.488 33.9534 443.594ZM37.0349 449.807C38.0131 449.807 38.7748 449.302 39.3198 448.29C39.8648 447.265 40.1373 445.699 40.1373 443.594C40.1373 441.806 39.9627 440.421 39.6133 439.437L34.9596 448.727C35.4627 449.447 36.1545 449.807 37.0349 449.807Z" fill="url(#paint7_linear_122_130)" fill-opacity="0.6"/>
<path d="M37.0349 460.008C38.5302 460.008 39.6622 460.639 40.4308 461.9C41.2134 463.147 41.6047 464.962 41.6047 467.345C41.6047 469.728 41.2134 471.549 40.4308 472.81C39.6622 474.071 38.5302 474.701 37.0349 474.701C35.5536 474.701 34.4216 474.071 33.639 472.81C32.8564 471.549 32.4651 469.728 32.4651 467.345C32.4651 464.975 32.8564 463.16 33.639 461.9C34.4216 460.639 35.5536 460.008 37.0349 460.008ZM33.9534 467.345C33.9534 469.035 34.1072 470.358 34.4146 471.314L39.0683 462.107C38.5791 461.456 37.9013 461.131 37.0349 461.131C36.0706 461.131 35.316 461.643 34.771 462.669C34.2259 463.68 33.9534 465.239 33.9534 467.345ZM37.0349 473.558C38.0131 473.558 38.7748 473.053 39.3198 472.041C39.8648 471.016 40.1373 469.451 40.1373 467.345C40.1373 465.557 39.9627 464.172 39.6133 463.188L34.9596 472.478C35.4627 473.198 36.1545 473.558 37.0349 473.558Z" fill="url(#paint8_linear_122_130)" fill-opacity="0.6"/>
<path d="M38.2926 497.143H41.3741V498.245H33.3874V497.143H36.9511V485.464L33.5551 487.48L32.9682 486.544L37.1607 483.967H38.2926V497.143Z" fill="url(#paint9_linear_122_130)" fill-opacity="0.6"/>
<path d="M37.0349 507.511C38.5302 507.511 39.6622 508.141 40.4308 509.402C41.2134 510.649 41.6047 512.464 41.6047 514.847C41.6047 517.23 41.2134 519.052 40.4308 520.312C39.6622 521.573 38.5302 522.204 37.0349 522.204C35.5536 522.204 34.4216 521.573 33.639 520.312C32.8564 519.052 32.4651 517.23 32.4651 514.847C32.4651 512.478 32.8564 510.663 33.639 509.402C34.4216 508.141 35.5536 507.511 37.0349 507.511ZM33.9534 514.847C33.9534 516.537 34.1072 517.86 34.4146 518.816L39.0683 509.61C38.5791 508.958 37.9013 508.633 37.0349 508.633C36.0706 508.633 35.316 509.145 34.771 510.171C34.2259 511.182 33.9534 512.741 33.9534 514.847ZM37.0349 521.061C38.0131 521.061 38.7748 520.555 39.3198 519.543C39.8648 518.518 40.1373 516.953 40.1373 514.847C40.1373 513.059 39.9627 511.674 39.6133 510.69L34.9596 519.98C35.4627 520.7 36.1545 521.061 37.0349 521.061Z" fill="url(#paint10_linear_122_130)" fill-opacity="0.6"/>
<path d="M38.2926 544.645H41.3741V545.747H33.3874V544.645H36.9511V532.966L33.5551 534.982L32.9682 534.046L37.1607 531.469H38.2926V544.645Z" fill="url(#paint11_linear_122_130)" fill-opacity="0.6"/>
<path d="M38.2926 568.396H41.3741V569.498H33.3874V568.396H36.9511V556.717L33.5551 558.733L32.9682 557.798L37.1607 555.221H38.2926V568.396Z" fill="url(#paint12_linear_122_130)" fill-opacity="0.6"/>
<path d="M75.9651 317.502C77.4604 317.502 78.5924 318.133 79.361 319.393C80.1436 320.64 80.5349 322.455 80.5349 324.838C80.5349 327.221 80.1436 329.043 79.361 330.304C78.5924 331.565 77.4604 332.195 75.9651 332.195C74.4838 332.195 73.3518 331.565 72.5692 330.304C71.7866 329.043 71.3953 327.221 71.3953 324.838C71.3953 322.469 71.7866 320.654 72.5692 319.393C73.3518 318.133 74.4838 317.502 75.9651 317.502ZM72.8836 324.838C72.8836 326.529 73.0374 327.852 73.3448 328.808L77.9985 319.601C77.5093 318.95 76.8315 318.624 75.9651 318.624C75.0008 318.624 74.2462 319.137 73.7012 320.162C73.1561 321.174 72.8836 322.732 72.8836 324.838ZM75.9651 331.052C76.9433 331.052 77.705 330.546 78.25 329.535C78.795 328.51 79.0675 326.944 79.0675 324.838C79.0675 323.051 78.8928 321.665 78.5435 320.682L73.8898 329.971C74.3929 330.692 75.0847 331.052 75.9651 331.052Z" fill="url(#paint13_linear_122_130)" fill-opacity="0.6"/>
<path d="M77.2228 354.637H80.3043V355.738H72.3176V354.637H75.8812V342.957L72.4853 344.973L71.8984 344.038L76.0909 341.461H77.2228V354.637Z" fill="url(#paint14_linear_122_130)" fill-opacity="0.6"/>
<path d="M75.9651 365.004C77.4604 365.004 78.5924 365.635 79.361 366.895C80.1436 368.142 80.5349 369.957 80.5349 372.34C80.5349 374.723 80.1436 376.545 79.361 377.806C78.5924 379.067 77.4604 379.697 75.9651 379.697C74.4838 379.697 73.3518 379.067 72.5692 377.806C71.7866 376.545 71.3953 374.723 71.3953 372.34C71.3953 369.971 71.7866 368.156 72.5692 366.895C73.3518 365.635 74.4838 365.004 75.9651 365.004ZM72.8836 372.34C72.8836 374.031 73.0374 375.354 73.3448 376.31L77.9985 367.103C77.5093 366.452 76.8315 366.126 75.9651 366.126C75.0008 366.126 74.2462 366.639 73.7012 367.664C73.1561 368.676 72.8836 370.234 72.8836 372.34ZM75.9651 378.554C76.9433 378.554 77.705 378.049 78.25 377.037C78.795 376.012 79.0675 374.446 79.0675 372.34C79.0675 370.553 78.8928 369.168 78.5435 368.184L73.8898 377.474C74.3929 378.194 75.0847 378.554 75.9651 378.554Z" fill="url(#paint15_linear_122_130)" fill-opacity="0.6"/>
<path d="M75.9651 388.755C77.4604 388.755 78.5924 389.386 79.361 390.646C80.1436 391.893 80.5349 393.708 80.5349 396.091C80.5349 398.474 80.1436 400.296 79.361 401.557C78.5924 402.818 77.4604 403.448 75.9651 403.448C74.4838 403.448 73.3518 402.818 72.5692 401.557C71.7866 400.296 71.3953 398.474 71.3953 396.091C71.3953 393.722 71.7866 391.907 72.5692 390.646C73.3518 389.386 74.4838 388.755 75.9651 388.755ZM72.8836 396.091C72.8836 397.782 73.0374 399.105 73.3448 400.061L77.9985 390.854C77.5093 390.203 76.8315 389.878 75.9651 389.878C75.0008 389.878 74.2462 390.39 73.7012 391.415C73.1561 392.427 72.8836 393.985 72.8836 396.091ZM75.9651 402.305C76.9433 402.305 77.705 401.8 78.25 400.788C78.795 399.763 79.0675 398.197 79.0675 396.091C79.0675 394.304 78.8928 392.919 78.5435 391.935L73.8898 401.225C74.3929 401.945 75.0847 402.305 75.9651 402.305Z" fill="url(#paint16_linear_122_130)" fill-opacity="0.6"/>
<path d="M77.2228 425.89H80.3043V426.992H72.3176V425.89H75.8812V414.21L72.4853 416.226L71.8984 415.291L76.0909 412.714H77.2228V425.89Z" fill="url(#paint17_linear_122_130)" fill-opacity="0.6"/>
<path d="M75.9651 436.257C77.4604 436.257 78.5924 436.888 79.361 438.149C80.1436 439.396 80.5349 441.211 80.5349 443.594C80.5349 445.977 80.1436 447.798 79.361 449.059C78.5924 450.32 77.4604 450.95 75.9651 450.95C74.4838 450.95 73.3518 450.32 72.5692 449.059C71.7866 447.798 71.3953 445.977 71.3953 443.594C71.3953 441.224 71.7866 439.409 72.5692 438.149C73.3518 436.888 74.4838 436.257 75.9651 436.257ZM72.8836 443.594C72.8836 445.284 73.0374 446.607 73.3448 447.563L77.9985 438.356C77.5093 437.705 76.8315 437.38 75.9651 437.38C75.0008 437.38 74.2462 437.892 73.7012 438.918C73.1561 439.929 72.8836 441.488 72.8836 443.594ZM75.9651 449.807C76.9433 449.807 77.705 449.302 78.25 448.29C78.795 447.265 79.0675 445.699 79.0675 443.594C79.0675 441.806 78.8928 440.421 78.5435 439.437L73.8898 448.727C74.3929 449.447 75.0847 449.807 75.9651 449.807Z" fill="url(#paint18_linear_122_130)" fill-opacity="0.6"/>
<path d="M77.2228 473.392H80.3043V474.494H72.3176V473.392H75.8812V461.713L72.4853 463.728L71.8984 462.793L76.0909 460.216H77.2228V473.392Z" fill="url(#paint19_linear_122_130)" fill-opacity="0.6"/>
<path d="M75.9651 483.76C77.4604 483.76 78.5924 484.39 79.361 485.651C80.1436 486.898 80.5349 488.713 80.5349 491.096C80.5349 493.479 80.1436 495.301 79.361 496.561C78.5924 497.822 77.4604 498.453 75.9651 498.453C74.4838 498.453 73.3518 497.822 72.5692 496.561C71.7866 495.301 71.3953 493.479 71.3953 491.096C71.3953 488.726 71.7866 486.911 72.5692 485.651C73.3518 484.39 74.4838 483.76 75.9651 483.76ZM72.8836 491.096C72.8836 492.786 73.0374 494.109 73.3448 495.065L77.9985 485.859C77.5093 485.207 76.8315 484.882 75.9651 484.882C75.0008 484.882 74.2462 485.394 73.7012 486.42C73.1561 487.431 72.8836 488.99 72.8836 491.096ZM75.9651 497.31C76.9433 497.31 77.705 496.804 78.25 495.792C78.795 494.767 79.0675 493.202 79.0675 491.096C79.0675 489.308 78.8928 487.923 78.5435 486.939L73.8898 496.229C74.3929 496.949 75.0847 497.31 75.9651 497.31Z" fill="url(#paint20_linear_122_130)" fill-opacity="0.6"/>
<path d="M75.9651 507.511C77.4604 507.511 78.5924 508.141 79.361 509.402C80.1436 510.649 80.5349 512.464 80.5349 514.847C80.5349 517.23 80.1436 519.052 79.361 520.312C78.5924 521.573 77.4604 522.204 75.9651 522.204C74.4838 522.204 73.3518 521.573 72.5692 520.312C71.7866 519.052 71.3953 517.23 71.3953 514.847C71.3953 512.478 71.7866 510.663 72.5692 509.402C73.3518 508.141 74.4838 507.511 75.9651 507.511ZM72.8836 514.847C72.8836 516.537 73.0374 517.86 73.3448 518.816L77.9985 509.61C77.5093 508.958 76.8315 508.633 75.9651 508.633C75.0008 508.633 74.2462 509.145 73.7012 510.171C73.1561 511.182 72.8836 512.741 72.8836 514.847ZM75.9651 521.061C76.9433 521.061 77.705 520.555 78.25 519.543C78.795 518.518 79.0675 516.953 79.0675 514.847C79.0675 513.059 78.8928 511.674 78.5435 510.69L73.8898 519.98C74.3929 520.7 75.0847 521.061 75.9651 521.061Z" fill="url(#paint21_linear_122_130)" fill-opacity="0.6"/>
<path d="M77.2228 544.645H80.3043V545.747H72.3176V544.645H75.8812V532.966L72.4853 534.982L71.8984 534.046L76.0909 531.469H77.2228V544.645Z" fill="url(#paint22_linear_122_130)" fill-opacity="0.6"/>
<path d="M75.9651 555.013C77.4604 555.013 78.5924 555.643 79.361 556.904C80.1436 558.151 80.5349 559.966 80.5349 562.349C80.5349 564.732 80.1436 566.554 79.361 567.815C78.5924 569.075 77.4604 569.706 75.9651 569.706C74.4838 569.706 73.3518 569.075 72.5692 567.815C71.7866 566.554 71.3953 564.732 71.3953 562.349C71.3953 559.98 71.7866 558.165 72.5692 556.904C73.3518 555.643 74.4838 555.013 75.9651 555.013ZM72.8836 562.349C72.8836 564.039 73.0374 565.362 73.3448 566.318L77.9985 557.112C77.5093 556.461 76.8315 556.135 75.9651 556.135C75.0008 556.135 74.2462 556.648 73.7012 557.673C73.1561 558.684 72.8836 560.243 72.8836 562.349ZM75.9651 568.563C76.9433 568.563 77.705 568.057 78.25 567.046C78.795 566.02 79.0675 564.455 79.0675 562.349C79.0675 560.562 78.8928 559.176 78.5435 558.192L73.8898 567.482C74.3929 568.202 75.0847 568.563 75.9651 568.563Z" fill="url(#paint23_linear_122_130)" fill-opacity="0.6"/>
<path d="M77.2228 592.148H80.3043V593.249H72.3176V592.148H75.8812V580.468L72.4853 582.484L71.8984 581.549L76.0909 578.972H77.2228V592.148Z" fill="url(#paint24_linear_122_130)" fill-opacity="0.6"/>
<path d="M77.2228 615.899H80.3043V617H72.3176V615.899H75.8812V604.219L72.4853 606.235L71.8984 605.3L76.0909 602.723H77.2228V615.899Z" fill="url(#paint25_linear_122_130)" fill-opacity="0.6"/>
<path d="M17.5698 341.253C19.0651 341.253 20.1971 341.884 20.9657 343.144C21.7483 344.391 22.1396 346.206 22.1396 348.589C22.1396 350.972 21.7483 352.794 20.9657 354.055C20.1971 355.316 19.0651 355.946 17.5698 355.946C16.0885 355.946 14.9565 355.316 14.1739 354.055C13.3913 352.794 13 350.972 13 348.589C13 346.22 13.3913 344.405 14.1739 343.144C14.9565 341.884 16.0885 341.253 17.5698 341.253ZM14.4883 348.589C14.4883 350.28 14.6421 351.603 14.9495 352.559L19.6032 343.352C19.114 342.701 18.4363 342.375 17.5698 342.375C16.6055 342.375 15.8509 342.888 15.3059 343.913C14.7608 344.925 14.4883 346.483 14.4883 348.589ZM17.5698 354.803C18.5481 354.803 19.3097 354.297 19.8547 353.286C20.3997 352.261 20.6722 350.695 20.6722 348.589C20.6722 346.802 20.4976 345.417 20.1482 344.433L15.4945 353.722C15.9976 354.443 16.6894 354.803 17.5698 354.803Z" fill="url(#paint26_linear_122_130)" fill-opacity="0.6"/>
<path d="M17.5698 365.004C19.0651 365.004 20.1971 365.635 20.9657 366.895C21.7483 368.142 22.1396 369.957 22.1396 372.34C22.1396 374.723 21.7483 376.545 20.9657 377.806C20.1971 379.067 19.0651 379.697 17.5698 379.697C16.0885 379.697 14.9565 379.067 14.1739 377.806C13.3913 376.545 13 374.723 13 372.34C13 369.971 13.3913 368.156 14.1739 366.895C14.9565 365.635 16.0885 365.004 17.5698 365.004ZM14.4883 372.34C14.4883 374.031 14.6421 375.354 14.9495 376.31L19.6032 367.103C19.114 366.452 18.4363 366.126 17.5698 366.126C16.6055 366.126 15.8509 366.639 15.3059 367.664C14.7608 368.676 14.4883 370.234 14.4883 372.34ZM17.5698 378.554C18.5481 378.554 19.3097 378.049 19.8547 377.037C20.3997 376.012 20.6722 374.446 20.6722 372.34C20.6722 370.553 20.4976 369.168 20.1482 368.184L15.4945 377.474C15.9976 378.194 16.6894 378.554 17.5698 378.554Z" fill="url(#paint27_linear_122_130)" fill-opacity="0.6"/>
<path d="M18.8276 402.139H21.909V403.24H13.9223V402.139H17.486V390.459L14.09 392.475L13.5031 391.54L17.6956 388.963H18.8276V402.139Z" fill="url(#paint28_linear_122_130)" fill-opacity="0.6"/>
<path d="M17.5698 412.506C19.0651 412.506 20.1971 413.137 20.9657 414.398C21.7483 415.644 22.1396 417.459 22.1396 419.842C22.1396 422.225 21.7483 424.047 20.9657 425.308C20.1971 426.569 19.0651 427.199 17.5698 427.199C16.0885 427.199 14.9565 426.569 14.1739 425.308C13.3913 424.047 13 422.225 13 419.842C13 417.473 13.3913 415.658 14.1739 414.398C14.9565 413.137 16.0885 412.506 17.5698 412.506ZM14.4883 419.842C14.4883 421.533 14.6421 422.856 14.9495 423.812L19.6032 414.605C19.114 413.954 18.4363 413.629 17.5698 413.629C16.6055 413.629 15.8509 414.141 15.3059 415.166C14.7608 416.178 14.4883 417.737 14.4883 419.842ZM17.5698 426.056C18.5481 426.056 19.3097 425.551 19.8547 424.539C20.3997 423.514 20.6722 421.948 20.6722 419.842C20.6722 418.055 20.4976 416.67 20.1482 415.686L15.4945 424.976C15.9976 425.696 16.6894 426.056 17.5698 426.056Z" fill="url(#paint29_linear_122_130)" fill-opacity="0.6"/>
<path d="M18.8276 449.641H21.909V450.743H13.9223V449.641H17.486V437.962L14.09 439.977L13.5031 439.042L17.6956 436.465H18.8276V449.641Z" fill="url(#paint30_linear_122_130)" fill-opacity="0.6"/>
<path d="M18.8276 473.392H21.909V474.494H13.9223V473.392H17.486V461.713L14.09 463.728L13.5031 462.793L17.6956 460.216H18.8276V473.392Z" fill="url(#paint31_linear_122_130)" fill-opacity="0.6"/>
<path d="M57.7577 307.135H60.8392V308.236H52.8525V307.135H56.4162V295.455L53.0202 297.471L52.4333 296.536L56.6258 293.959H57.7577V307.135Z" fill="url(#paint32_linear_122_130)" fill-opacity="0.6"/>
<path d="M56.5 317.502C57.9953 317.502 59.1273 318.133 59.8959 319.393C60.6785 320.64 61.0698 322.455 61.0698 324.838C61.0698 327.221 60.6785 329.043 59.8959 330.304C59.1273 331.565 57.9953 332.195 56.5 332.195C55.0187 332.195 53.8867 331.565 53.1041 330.304C52.3215 329.043 51.9302 327.221 51.9302 324.838C51.9302 322.469 52.3215 320.654 53.1041 319.393C53.8867 318.133 55.0187 317.502 56.5 317.502ZM53.4185 324.838C53.4185 326.529 53.5723 327.852 53.8797 328.808L58.5334 319.601C58.0442 318.95 57.3664 318.624 56.5 318.624C55.5357 318.624 54.7811 319.137 54.2361 320.162C53.691 321.174 53.4185 322.732 53.4185 324.838ZM56.5 331.052C57.4782 331.052 58.2399 330.546 58.7849 329.535C59.3299 328.51 59.6024 326.944 59.6024 324.838C59.6024 323.051 59.4277 321.665 59.0784 320.682L54.4247 329.971C54.9278 330.692 55.6196 331.052 56.5 331.052Z" fill="url(#paint33_linear_122_130)" fill-opacity="0.6"/>
<path d="M57.7577 354.637H60.8392V355.738H52.8525V354.637H56.4162V342.957L53.0202 344.973L52.4333 344.038L56.6258 341.461H57.7577V354.637Z" fill="url(#paint34_linear_122_130)" fill-opacity="0.6"/>
<path d="M57.7577 378.388H60.8392V379.489H52.8525V378.388H56.4162V366.708L53.0202 368.724L52.4333 367.789L56.6258 365.212H57.7577V378.388Z" fill="url(#paint35_linear_122_130)" fill-opacity="0.6"/>
<path d="M56.5 388.755C57.9953 388.755 59.1273 389.386 59.8959 390.646C60.6785 391.893 61.0698 393.708 61.0698 396.091C61.0698 398.474 60.6785 400.296 59.8959 401.557C59.1273 402.818 57.9953 403.448 56.5 403.448C55.0187 403.448 53.8867 402.818 53.1041 401.557C52.3215 400.296 51.9302 398.474 51.9302 396.091C51.9302 393.722 52.3215 391.907 53.1041 390.646C53.8867 389.386 55.0187 388.755 56.5 388.755ZM53.4185 396.091C53.4185 397.782 53.5723 399.105 53.8797 400.061L58.5334 390.854C58.0442 390.203 57.3664 389.878 56.5 389.878C55.5357 389.878 54.7811 390.39 54.2361 391.415C53.691 392.427 53.4185 393.985 53.4185 396.091ZM56.5 402.305C57.4782 402.305 58.2399 401.8 58.7849 400.788C59.3299 399.763 59.6024 398.197 59.6024 396.091C59.6024 394.304 59.4277 392.919 59.0784 391.935L54.4247 401.225C54.9278 401.945 55.6196 402.305 56.5 402.305Z" fill="url(#paint36_linear_122_130)" fill-opacity="0.6"/>
<path d="M57.7577 425.89H60.8392V426.992H52.8525V425.89H56.4162V414.21L53.0202 416.226L52.4333 415.291L56.6258 412.714H57.7577V425.89Z" fill="url(#paint37_linear_122_130)" fill-opacity="0.6"/>
<path d="M57.7577 449.641H60.8392V450.743H52.8525V449.641H56.4162V437.962L53.0202 439.977L52.4333 439.042L56.6258 436.465H57.7577V449.641Z" fill="url(#paint38_linear_122_130)" fill-opacity="0.6"/>
<path d="M56.5 460.008C57.9953 460.008 59.1273 460.639 59.8959 461.9C60.6785 463.147 61.0698 464.962 61.0698 467.345C61.0698 469.728 60.6785 471.549 59.8959 472.81C59.1273 474.071 57.9953 474.701 56.5 474.701C55.0187 474.701 53.8867 474.071 53.1041 472.81C52.3215 471.549 51.9302 469.728 51.9302 467.345C51.9302 464.975 52.3215 463.16 53.1041 461.9C53.8867 460.639 55.0187 460.008 56.5 460.008ZM53.4185 467.345C53.4185 469.035 53.5723 470.358 53.8797 471.314L58.5334 462.107C58.0442 461.456 57.3664 461.131 56.5 461.131C55.5357 461.131 54.7811 461.643 54.2361 462.669C53.691 463.68 53.4185 465.239 53.4185 467.345ZM56.5 473.558C57.4782 473.558 58.2399 473.053 58.7849 472.041C59.3299 471.016 59.6024 469.451 59.6024 467.345C59.6024 465.557 59.4277 464.172 59.0784 463.188L54.4247 472.478C54.9278 473.198 55.6196 473.558 56.5 473.558Z" fill="url(#paint39_linear_122_130)" fill-opacity="0.6"/>
<path d="M57.7577 497.143H60.8392V498.245H52.8525V497.143H56.4162V485.464L53.0202 487.48L52.4333 486.544L56.6258 483.967H57.7577V497.143Z" fill="url(#paint40_linear_122_130)" fill-opacity="0.6"/>
<path d="M56.5 507.511C57.9953 507.511 59.1273 508.141 59.8959 509.402C60.6785 510.649 61.0698 512.464 61.0698 514.847C61.0698 517.23 60.6785 519.052 59.8959 520.312C59.1273 521.573 57.9953 522.204 56.5 522.204C55.0187 522.204 53.8867 521.573 53.1041 520.312C52.3215 519.052 51.9302 517.23 51.9302 514.847C51.9302 512.478 52.3215 510.663 53.1041 509.402C53.8867 508.141 55.0187 507.511 56.5 507.511ZM53.4185 514.847C53.4185 516.537 53.5723 517.86 53.8797 518.816L58.5334 509.61C58.0442 508.958 57.3664 508.633 56.5 508.633C55.5357 508.633 54.7811 509.145 54.2361 510.171C53.691 511.182 53.4185 512.741 53.4185 514.847ZM56.5 521.061C57.4782 521.061 58.2399 520.555 58.7849 519.543C59.3299 518.518 59.6024 516.953 59.6024 514.847C59.6024 513.059 59.4277 511.674 59.0784 510.69L54.4247 519.98C54.9278 520.7 55.6196 521.061 56.5 521.061Z" fill="url(#paint41_linear_122_130)" fill-opacity="0.6"/>
<path d="M95.4302 293.751C96.9255 293.751 98.0575 294.381 98.8261 295.642C99.6087 296.889 100 298.704 100 301.087C100 303.47 99.6087 305.292 98.8261 306.553C98.0575 307.814 96.9255 308.444 95.4302 308.444C93.9489 308.444 92.8169 307.814 92.0343 306.553C91.2517 305.292 90.8604 303.47 90.8604 301.087C90.8604 298.718 91.2517 296.903 92.0343 295.642C92.8169 294.381 93.9489 293.751 95.4302 293.751ZM92.3487 301.087C92.3487 302.777 92.5024 304.101 92.8099 305.057L97.4636 295.85C96.9744 295.199 96.2966 294.873 95.4302 294.873C94.4659 294.873 93.7113 295.386 93.1663 296.411C92.6212 297.423 92.3487 298.981 92.3487 301.087ZM95.4302 307.301C96.4084 307.301 97.1701 306.795 97.7151 305.784C98.2601 304.759 98.5326 303.193 98.5326 301.087C98.5326 299.3 98.3579 297.914 98.0086 296.931L93.3549 306.22C93.858 306.941 94.5498 307.301 95.4302 307.301Z" fill="url(#paint42_linear_122_130)" fill-opacity="0.6"/>
<path d="M96.6879 330.886H99.7694V331.987H91.7827V330.886H95.3463V319.206L91.9504 321.222L91.3635 320.287L95.556 317.71H96.6879V330.886Z" fill="url(#paint43_linear_122_130)" fill-opacity="0.6"/>
<path d="M96.6879 354.637H99.7694V355.738H91.7827V354.637H95.3463V342.957L91.9504 344.973L91.3635 344.038L95.556 341.461H96.6879V354.637Z" fill="url(#paint44_linear_122_130)" fill-opacity="0.6"/>
<path d="M95.4302 365.004C96.9255 365.004 98.0575 365.635 98.8261 366.895C99.6087 368.142 100 369.957 100 372.34C100 374.723 99.6087 376.545 98.8261 377.806C98.0575 379.067 96.9255 379.697 95.4302 379.697C93.9489 379.697 92.8169 379.067 92.0343 377.806C91.2517 376.545 90.8604 374.723 90.8604 372.34C90.8604 369.971 91.2517 368.156 92.0343 366.895C92.8169 365.635 93.9489 365.004 95.4302 365.004ZM92.3487 372.34C92.3487 374.031 92.5024 375.354 92.8099 376.31L97.4636 367.103C96.9744 366.452 96.2966 366.126 95.4302 366.126C94.4659 366.126 93.7113 366.639 93.1663 367.664C92.6212 368.676 92.3487 370.234 92.3487 372.34ZM95.4302 378.554C96.4084 378.554 97.1701 378.049 97.7151 377.037C98.2601 376.012 98.5326 374.446 98.5326 372.34C98.5326 370.553 98.3579 369.168 98.0086 368.184L93.3549 377.474C93.858 378.194 94.5498 378.554 95.4302 378.554Z" fill="url(#paint45_linear_122_130)" fill-opacity="0.6"/>
<path d="M95.4302 388.755C96.9255 388.755 98.0575 389.386 98.8261 390.646C99.6087 391.893 100 393.708 100 396.091C100 398.474 99.6087 400.296 98.8261 401.557C98.0575 402.818 96.9255 403.448 95.4302 403.448C93.9489 403.448 92.8169 402.818 92.0343 401.557C91.2517 400.296 90.8604 398.474 90.8604 396.091C90.8604 393.722 91.2517 391.907 92.0343 390.646C92.8169 389.386 93.9489 388.755 95.4302 388.755ZM92.3487 396.091C92.3487 397.782 92.5024 399.105 92.8099 400.061L97.4636 390.854C96.9744 390.203 96.2966 389.878 95.4302 389.878C94.4659 389.878 93.7113 390.39 93.1663 391.415C92.6212 392.427 92.3487 393.985 92.3487 396.091ZM95.4302 402.305C96.4084 402.305 97.1701 401.8 97.7151 400.788C98.2601 399.763 98.5326 398.197 98.5326 396.091C98.5326 394.304 98.3579 392.919 98.0086 391.935L93.3549 401.225C93.858 401.945 94.5498 402.305 95.4302 402.305Z" fill="url(#paint46_linear_122_130)" fill-opacity="0.6"/>
<g opacity="0.6">
<path d="M923.93 -30C925.356 -30 926.436 -29.395 927.17 -28.1851C927.916 -26.9885 928.29 -25.2468 928.29 -22.9599C928.29 -20.673 927.916 -18.9246 927.17 -17.7147C926.436 -16.5048 925.356 -15.8998 923.93 -15.8998C922.517 -15.8998 921.437 -16.5048 920.69 -17.7147C919.943 -18.9246 919.57 -20.673 919.57 -22.9599C919.57 -25.2335 919.943 -26.9752 920.69 -28.1851C921.437 -29.395 922.517 -30 923.93 -30ZM920.99 -22.9599C920.99 -21.3378 921.137 -20.068 921.43 -19.1506L925.87 -27.9857C925.403 -28.6106 924.756 -28.923 923.93 -28.923C923.01 -28.923 922.29 -28.4311 921.77 -27.4472C921.25 -26.4766 920.99 -24.9808 920.99 -22.9599ZM923.93 -16.9967C924.863 -16.9967 925.59 -17.482 926.11 -18.4526C926.63 -19.4365 926.89 -20.9389 926.89 -22.9599C926.89 -24.675 926.723 -26.0046 926.39 -26.9486L921.95 -18.0338C922.43 -17.3424 923.09 -16.9967 923.93 -16.9967Z" fill="url(#paint47_linear_122_130)" fill-opacity="0.8"/>
<path d="M925.13 5.63655H928.07V6.69356H920.45V5.63655H923.85V-5.57181L920.61 -3.63727L920.05 -4.53474L924.05 -7.00776H925.13V5.63655Z" fill="url(#paint48_linear_122_130)" fill-opacity="0.8"/>
<path d="M923.93 15.5856C925.356 15.5856 926.436 16.1906 927.17 17.4005C927.916 18.5971 928.29 20.3389 928.29 22.6257C928.29 24.9126 927.916 26.661 927.17 27.8709C926.436 29.0808 925.356 29.6858 923.93 29.6858C922.517 29.6858 921.437 29.0808 920.69 27.8709C919.943 26.661 919.57 24.9126 919.57 22.6257C919.57 20.3522 919.943 18.6104 920.69 17.4005C921.437 16.1906 922.517 15.5856 923.93 15.5856ZM920.99 22.6257C920.99 24.2478 921.137 25.5176 921.43 26.435L925.87 17.5999C925.403 16.975 924.756 16.6626 923.93 16.6626C923.01 16.6626 922.29 17.1545 921.77 18.1384C921.25 19.109 920.99 20.6048 920.99 22.6257ZM923.93 28.5889C924.863 28.5889 925.59 28.1036 926.11 27.133C926.63 26.1491 926.89 24.6467 926.89 22.6257C926.89 20.9106 926.723 19.581 926.39 18.637L921.95 27.5518C922.43 28.2432 923.09 28.5889 923.93 28.5889Z" fill="url(#paint49_linear_122_130)" fill-opacity="0.8"/>
<path d="M925.13 51.2221H928.07V52.2792H920.45V51.2221H923.85V40.0138L920.61 41.9483L920.05 41.0509L924.05 38.5778H925.13V51.2221Z" fill="url(#paint50_linear_122_130)" fill-opacity="0.8"/>
<path d="M925.13 74.015H928.07V75.072H920.45V74.015H923.85V62.8066L920.61 64.7411L920.05 63.8437L924.05 61.3706H925.13V74.015Z" fill="url(#paint51_linear_122_130)" fill-opacity="0.8"/>
<path d="M923.93 83.964C925.356 83.964 926.436 84.569 927.17 85.7789C927.916 86.9755 928.29 88.7173 928.29 91.0041C928.29 93.291 927.916 95.0394 927.17 96.2493C926.436 97.4593 925.356 98.0642 923.93 98.0642C922.517 98.0642 921.437 97.4593 920.69 96.2493C919.943 95.0394 919.57 93.291 919.57 91.0041C919.57 88.7306 919.943 86.9888 920.69 85.7789C921.437 84.569 922.517 83.964 923.93 83.964ZM920.99 91.0041C920.99 92.6262 921.137 93.896 921.43 94.8134L925.87 85.9783C925.403 85.3534 924.756 85.041 923.93 85.041C923.01 85.041 922.29 85.5329 921.77 86.5168C921.25 87.4874 920.99 88.9832 920.99 91.0041ZM923.93 96.9673C924.863 96.9673 925.59 96.482 926.11 95.5114C926.63 94.5275 926.89 93.0251 926.89 91.0041C926.89 89.289 926.723 87.9594 926.39 87.0154L921.95 95.9302C922.43 96.6216 923.09 96.9673 923.93 96.9673Z" fill="url(#paint52_linear_122_130)" fill-opacity="0.8"/>
<path d="M925.13 119.601H928.07V120.658H920.45V119.601H923.85V108.392L920.61 110.327L920.05 109.429L924.05 106.956H925.13V119.601Z" fill="url(#paint53_linear_122_130)" fill-opacity="0.8"/>
<path d="M923.93 129.55C925.356 129.55 926.436 130.155 927.17 131.365C927.916 132.561 928.29 134.303 928.29 136.59C928.29 138.877 927.916 140.625 927.17 141.835C926.436 143.045 925.356 143.65 923.93 143.65C922.517 143.65 921.437 143.045 920.69 141.835C919.943 140.625 919.57 138.877 919.57 136.59C919.57 134.316 919.943 132.574 920.69 131.365C921.437 130.155 922.517 129.55 923.93 129.55ZM920.99 136.59C920.99 138.212 921.137 139.482 921.43 140.399L925.87 131.564C925.403 130.939 924.756 130.627 923.93 130.627C923.01 130.627 922.29 131.119 921.77 132.102C921.25 133.073 920.99 134.569 920.99 136.59ZM923.93 142.553C924.863 142.553 925.59 142.068 926.11 141.097C926.63 140.113 926.89 138.611 926.89 136.59C926.89 134.875 926.723 133.545 926.39 132.601L921.95 141.516C922.43 142.207 923.09 142.553 923.93 142.553Z" fill="url(#paint54_linear_122_130)" fill-opacity="0.8"/>
<path d="M923.93 152.342C925.356 152.342 926.436 152.947 927.17 154.157C927.916 155.354 928.29 157.096 928.29 159.383C928.29 161.669 927.916 163.418 927.17 164.628C926.436 165.838 925.356 166.443 923.93 166.443C922.517 166.443 921.437 165.838 920.69 164.628C919.943 163.418 919.57 161.669 919.57 159.383C919.57 157.109 919.943 155.367 920.69 154.157C921.437 152.947 922.517 152.342 923.93 152.342ZM920.99 159.383C920.99 161.005 921.137 162.274 921.43 163.192L925.87 154.357C925.403 153.732 924.756 153.419 923.93 153.419C923.01 153.419 922.29 153.911 921.77 154.895C921.25 155.866 920.99 157.362 920.99 159.383ZM923.93 165.346C924.863 165.346 925.59 164.86 926.11 163.89C926.63 162.906 926.89 161.404 926.89 159.383C926.89 157.667 926.723 156.338 926.39 155.394L921.95 164.309C922.43 165 923.09 165.346 923.93 165.346Z" fill="url(#paint55_linear_122_130)" fill-opacity="0.8"/>
<path d="M925.13 187.979H928.07V189.036H920.45V187.979H923.85V176.771L920.61 178.705L920.05 177.808L924.05 175.335H925.13V187.979Z" fill="url(#paint56_linear_122_130)" fill-opacity="0.8"/>
<path d="M923.93 197.928C925.356 197.928 926.436 198.533 927.17 199.743C927.916 200.94 928.29 202.681 928.29 204.968C928.29 207.255 927.916 209.003 927.17 210.213C926.436 211.423 925.356 212.028 923.93 212.028C922.517 212.028 921.437 211.423 920.69 210.213C919.943 209.003 919.57 207.255 919.57 204.968C919.57 202.695 919.943 200.953 920.69 199.743C921.437 198.533 922.517 197.928 923.93 197.928ZM920.99 204.968C920.99 206.59 921.137 207.86 921.43 208.777L925.87 199.942C925.403 199.317 924.756 199.005 923.93 199.005C923.01 199.005 922.29 199.497 921.77 200.481C921.25 201.451 920.99 202.947 920.99 204.968ZM923.93 210.931C924.863 210.931 925.59 210.446 926.11 209.475C926.63 208.492 926.89 206.989 926.89 204.968C926.89 203.253 926.723 201.923 926.39 200.979L921.95 209.894C922.43 210.586 923.09 210.931 923.93 210.931Z" fill="url(#paint57_linear_122_130)" fill-opacity="0.8"/>
<path d="M925.13 233.565H928.07V234.622H920.45V233.565H923.85V222.356L920.61 224.291L920.05 223.393L924.05 220.92H925.13V233.565Z" fill="url(#paint58_linear_122_130)" fill-opacity="0.8"/>
<path d="M925.13 256.357H928.07V257.414H920.45V256.357H923.85V245.149L920.61 247.084L920.05 246.186L924.05 243.713H925.13V256.357Z" fill="url(#paint59_linear_122_130)" fill-opacity="0.8"/>
<path d="M961.07 15.5856C962.497 15.5856 963.577 16.1906 964.31 17.4005C965.057 18.5971 965.43 20.3389 965.43 22.6257C965.43 24.9126 965.057 26.661 964.31 27.8709C963.577 29.0808 962.497 29.6858 961.07 29.6858C959.657 29.6858 958.577 29.0808 957.83 27.8709C957.084 26.661 956.71 24.9126 956.71 22.6257C956.71 20.3522 957.084 18.6104 957.83 17.4005C958.577 16.1906 959.657 15.5856 961.07 15.5856ZM958.13 22.6257C958.13 24.2478 958.277 25.5176 958.57 26.435L963.01 17.5999C962.543 16.975 961.897 16.6626 961.07 16.6626C960.15 16.6626 959.43 17.1545 958.91 18.1384C958.39 19.109 958.13 20.6048 958.13 22.6257ZM961.07 28.5889C962.003 28.5889 962.73 28.1036 963.25 27.133C963.77 26.1491 964.03 24.6467 964.03 22.6257C964.03 20.9106 963.863 19.581 963.53 18.637L959.09 27.5518C959.57 28.2432 960.23 28.5889 961.07 28.5889Z" fill="url(#paint60_linear_122_130)" fill-opacity="0.8"/>
<path d="M962.27 51.2221H965.21V52.2792H957.59V51.2221H960.99V40.0138L957.75 41.9483L957.19 41.0509L961.19 38.5778H962.27V51.2221Z" fill="url(#paint61_linear_122_130)" fill-opacity="0.8"/>
<path d="M961.07 61.1712C962.497 61.1712 963.577 61.7762 964.31 62.9861C965.057 64.1827 965.43 65.9245 965.43 68.2113C965.43 70.4982 965.057 72.2466 964.31 73.4565C963.577 74.6664 962.497 75.2714 961.07 75.2714C959.657 75.2714 958.577 74.6664 957.83 73.4565C957.084 72.2466 956.71 70.4982 956.71 68.2113C956.71 65.9378 957.084 64.196 957.83 62.9861C958.577 61.7762 959.657 61.1712 961.07 61.1712ZM958.13 68.2113C958.13 69.8334 958.277 71.1032 958.57 72.0206L963.01 63.1855C962.543 62.5606 961.897 62.2482 961.07 62.2482C960.15 62.2482 959.43 62.7401 958.91 63.724C958.39 64.6946 958.13 66.1904 958.13 68.2113ZM961.07 74.1745C962.003 74.1745 962.73 73.6892 963.25 72.7186C963.77 71.7347 964.03 70.2323 964.03 68.2113C964.03 66.4962 963.863 65.1666 963.53 64.2226L959.09 73.1374C959.57 73.8288 960.23 74.1745 961.07 74.1745Z" fill="url(#paint62_linear_122_130)" fill-opacity="0.8"/>
<path d="M961.07 83.964C962.497 83.964 963.577 84.569 964.31 85.7789C965.057 86.9755 965.43 88.7173 965.43 91.0041C965.43 93.291 965.057 95.0394 964.31 96.2493C963.577 97.4593 962.497 98.0642 961.07 98.0642C959.657 98.0642 958.577 97.4593 957.83 96.2493C957.084 95.0394 956.71 93.291 956.71 91.0041C956.71 88.7306 957.084 86.9888 957.83 85.7789C958.577 84.569 959.657 83.964 961.07 83.964ZM958.13 91.0041C958.13 92.6262 958.277 93.896 958.57 94.8134L963.01 85.9783C962.543 85.3534 961.897 85.041 961.07 85.041C960.15 85.041 959.43 85.5329 958.91 86.5168C958.39 87.4874 958.13 88.9832 958.13 91.0041ZM961.07 96.9673C962.003 96.9673 962.73 96.482 963.25 95.5114C963.77 94.5275 964.03 93.0251 964.03 91.0041C964.03 89.289 963.863 87.9594 963.53 87.0154L959.09 95.9302C959.57 96.6216 960.23 96.9673 961.07 96.9673Z" fill="url(#paint63_linear_122_130)" fill-opacity="0.8"/>
<path d="M962.27 119.601H965.21V120.658H957.59V119.601H960.99V108.392L957.75 110.327L957.19 109.429L961.19 106.956H962.27V119.601Z" fill="url(#paint64_linear_122_130)" fill-opacity="0.8"/>
<path d="M961.07 129.55C962.497 129.55 963.577 130.155 964.31 131.365C965.057 132.561 965.43 134.303 965.43 136.59C965.43 138.877 965.057 140.625 964.31 141.835C963.577 143.045 962.497 143.65 961.07 143.65C959.657 143.65 958.577 143.045 957.83 141.835C957.084 140.625 956.71 138.877 956.71 136.59C956.71 134.316 957.084 132.574 957.83 131.365C958.577 130.155 959.657 129.55 961.07 129.55ZM958.13 136.59C958.13 138.212 958.277 139.482 958.57 140.399L963.01 131.564C962.543 130.939 961.897 130.627 961.07 130.627C960.15 130.627 959.43 131.119 958.91 132.102C958.39 133.073 958.13 134.569 958.13 136.59ZM961.07 142.553C962.003 142.553 962.73 142.068 963.25 141.097C963.77 140.113 964.03 138.611 964.03 136.59C964.03 134.875 963.863 133.545 963.53 132.601L959.09 141.516C959.57 142.207 960.23 142.553 961.07 142.553Z" fill="url(#paint65_linear_122_130)" fill-opacity="0.8"/>
<path d="M962.27 165.186H965.21V166.243H957.59V165.186H960.99V153.978L957.75 155.912L957.19 155.015L961.19 152.542H962.27V165.186Z" fill="url(#paint66_linear_122_130)" fill-opacity="0.8"/>
<path d="M961.07 175.135C962.497 175.135 963.577 175.74 964.31 176.95C965.057 178.147 965.43 179.888 965.43 182.175C965.43 184.462 965.057 186.211 964.31 187.421C963.577 188.63 962.497 189.235 961.07 189.235C959.657 189.235 958.577 188.63 957.83 187.421C957.084 186.211 956.71 184.462 956.71 182.175C956.71 179.902 957.084 178.16 957.83 176.95C958.577 175.74 959.657 175.135 961.07 175.135ZM958.13 182.175C958.13 183.797 958.277 185.067 958.57 185.985L963.01 177.15C962.543 176.525 961.897 176.212 961.07 176.212C960.15 176.212 959.43 176.704 958.91 177.688C958.39 178.659 958.13 180.154 958.13 182.175ZM961.07 188.139C962.003 188.139 962.73 187.653 963.25 186.683C963.77 185.699 964.03 184.196 964.03 182.175C964.03 180.46 963.863 179.131 963.53 178.187L959.09 187.101C959.57 187.793 960.23 188.139 961.07 188.139Z" fill="url(#paint67_linear_122_130)" fill-opacity="0.8"/>
<path d="M961.07 197.928C962.497 197.928 963.577 198.533 964.31 199.743C965.057 200.94 965.43 202.681 965.43 204.968C965.43 207.255 965.057 209.003 964.31 210.213C963.577 211.423 962.497 212.028 961.07 212.028C959.657 212.028 958.577 211.423 957.83 210.213C957.084 209.003 956.71 207.255 956.71 204.968C956.71 202.695 957.084 200.953 957.83 199.743C958.577 198.533 959.657 197.928 961.07 197.928ZM958.13 204.968C958.13 206.59 958.277 207.86 958.57 208.777L963.01 199.942C962.543 199.317 961.897 199.005 961.07 199.005C960.15 199.005 959.43 199.497 958.91 200.481C958.39 201.451 958.13 202.947 958.13 204.968ZM961.07 210.931C962.003 210.931 962.73 210.446 963.25 209.475C963.77 208.492 964.03 206.989 964.03 204.968C964.03 203.253 963.863 201.923 963.53 200.979L959.09 209.894C959.57 210.586 960.23 210.931 961.07 210.931Z" fill="url(#paint68_linear_122_130)" fill-opacity="0.8"/>
<path d="M962.27 233.565H965.21V234.622H957.59V233.565H960.99V222.356L957.75 224.291L957.19 223.393L961.19 220.92H962.27V233.565Z" fill="url(#paint69_linear_122_130)" fill-opacity="0.8"/>
<path d="M961.07 243.514C962.497 243.514 963.577 244.119 964.31 245.329C965.057 246.525 965.43 248.267 965.43 250.554C965.43 252.841 965.057 254.589 964.31 255.799C963.577 257.009 962.497 257.614 961.07 257.614C959.657 257.614 958.577 257.009 957.83 255.799C957.084 254.589 956.71 252.841 956.71 250.554C956.71 248.28 957.084 246.538 957.83 245.329C958.577 244.119 959.657 243.514 961.07 243.514ZM958.13 250.554C958.13 252.176 958.277 253.446 958.57 254.363L963.01 245.528C962.543 244.903 961.897 244.591 961.07 244.591C960.15 244.591 959.43 245.083 958.91 246.066C958.39 247.037 958.13 248.533 958.13 250.554ZM961.07 256.517C962.003 256.517 962.73 256.032 963.25 255.061C963.77 254.077 964.03 252.575 964.03 250.554C964.03 248.839 963.863 247.509 963.53 246.565L959.09 255.48C959.57 256.171 960.23 256.517 961.07 256.517Z" fill="url(#paint70_linear_122_130)" fill-opacity="0.8"/>
<path d="M962.27 279.15H965.21V280.207H957.59V279.15H960.99V267.942L957.75 269.876L957.19 268.979L961.19 266.506H962.27V279.15Z" fill="url(#paint71_linear_122_130)" fill-opacity="0.8"/>
<path d="M962.27 301.943H965.21V303H957.59V301.943H960.99V290.735L957.75 292.669L957.19 291.772L961.19 289.299H962.27V301.943Z" fill="url(#paint72_linear_122_130)" fill-opacity="0.8"/>
<path d="M905.36 38.3784C906.786 38.3784 907.866 38.9834 908.599 40.1933C909.346 41.3899 909.719 43.1317 909.719 45.4185C909.719 47.7054 909.346 49.4538 908.599 50.6637C907.866 51.8736 906.786 52.4786 905.36 52.4786C903.946 52.4786 902.867 51.8736 902.12 50.6637C901.373 49.4538 901 47.7054 901 45.4185C901 43.145 901.373 41.4032 902.12 40.1933C902.867 38.9834 903.946 38.3784 905.36 38.3784ZM902.42 45.4185C902.42 47.0406 902.567 48.3104 902.86 49.2278L907.3 40.3927C906.833 39.7678 906.186 39.4554 905.36 39.4554C904.44 39.4554 903.72 39.9473 903.2 40.9312C902.68 41.9018 902.42 43.3976 902.42 45.4185ZM905.36 51.3817C906.293 51.3817 907.02 50.8964 907.54 49.9258C908.06 48.9419 908.319 47.4395 908.319 45.4185C908.319 43.7034 908.153 42.3738 907.82 41.4298L903.38 50.3446C903.86 51.036 904.52 51.3817 905.36 51.3817Z" fill="url(#paint73_linear_122_130)" fill-opacity="0.8"/>
<path d="M905.36 61.1712C906.786 61.1712 907.866 61.7762 908.599 62.9861C909.346 64.1827 909.719 65.9245 909.719 68.2113C909.719 70.4982 909.346 72.2466 908.599 73.4565C907.866 74.6664 906.786 75.2714 905.36 75.2714C903.946 75.2714 902.867 74.6664 902.12 73.4565C901.373 72.2466 901 70.4982 901 68.2113C901 65.9378 901.373 64.196 902.12 62.9861C902.867 61.7762 903.946 61.1712 905.36 61.1712ZM902.42 68.2113C902.42 69.8334 902.567 71.1032 902.86 72.0206L907.3 63.1855C906.833 62.5606 906.186 62.2482 905.36 62.2482C904.44 62.2482 903.72 62.7401 903.2 63.724C902.68 64.6946 902.42 66.1904 902.42 68.2113ZM905.36 74.1745C906.293 74.1745 907.02 73.6892 907.54 72.7186C908.06 71.7347 908.319 70.2323 908.319 68.2113C908.319 66.4962 908.153 65.1666 907.82 64.2226L903.38 73.1374C903.86 73.8288 904.52 74.1745 905.36 74.1745Z" fill="url(#paint74_linear_122_130)" fill-opacity="0.8"/>
<path d="M906.56 96.8078H909.499V97.8648H901.88V96.8078H905.28V85.5994L902.04 87.5339L901.48 86.6365L905.48 84.1635H906.56V96.8078Z" fill="url(#paint75_linear_122_130)" fill-opacity="0.8"/>
<path d="M905.36 106.757C906.786 106.757 907.866 107.362 908.599 108.572C909.346 109.768 909.719 111.51 909.719 113.797C909.719 116.084 909.346 117.832 908.599 119.042C907.866 120.252 906.786 120.857 905.36 120.857C903.946 120.857 902.867 120.252 902.12 119.042C901.373 117.832 901 116.084 901 113.797C901 111.523 901.373 109.782 902.12 108.572C902.867 107.362 903.946 106.757 905.36 106.757ZM902.42 113.797C902.42 115.419 902.567 116.689 902.86 117.606L907.3 108.771C906.833 108.146 906.186 107.834 905.36 107.834C904.44 107.834 903.72 108.326 903.2 109.31C902.68 110.28 902.42 111.776 902.42 113.797ZM905.36 119.76C906.293 119.76 907.02 119.275 907.54 118.304C908.06 117.32 908.319 115.818 908.319 113.797C908.319 112.082 908.153 110.752 907.82 109.808L903.38 118.723C903.86 119.414 904.52 119.76 905.36 119.76Z" fill="url(#paint76_linear_122_130)" fill-opacity="0.8"/>
<path d="M906.56 142.393H909.499V143.45H901.88V142.393H905.28V131.185L902.04 133.12L901.48 132.222L905.48 129.749H906.56V142.393Z" fill="url(#paint77_linear_122_130)" fill-opacity="0.8"/>
<path d="M906.56 165.186H909.499V166.243H901.88V165.186H905.28V153.978L902.04 155.912L901.48 155.015L905.48 152.542H906.56V165.186Z" fill="url(#paint78_linear_122_130)" fill-opacity="0.8"/>
<path d="M943.7 5.63655H946.64V6.69356H939.02V5.63655H942.42V-5.57181L939.18 -3.63727L938.62 -4.53474L942.62 -7.00776H943.7V5.63655Z" fill="url(#paint79_linear_122_130)" fill-opacity="0.8"/>
<path d="M942.5 15.5856C943.927 15.5856 945.006 16.1906 945.74 17.4005C946.486 18.5971 946.86 20.3389 946.86 22.6257C946.86 24.9126 946.486 26.661 945.74 27.8709C945.006 29.0808 943.927 29.6858 942.5 29.6858C941.087 29.6858 940.007 29.0808 939.26 27.8709C938.514 26.661 938.14 24.9126 938.14 22.6257C938.14 20.3522 938.514 18.6104 939.26 17.4005C940.007 16.1906 941.087 15.5856 942.5 15.5856ZM939.56 22.6257C939.56 24.2478 939.707 25.5176 940 26.435L944.44 17.5999C943.973 16.975 943.327 16.6626 942.5 16.6626C941.58 16.6626 940.86 17.1545 940.34 18.1384C939.82 19.109 939.56 20.6048 939.56 22.6257ZM942.5 28.5889C943.433 28.5889 944.16 28.1036 944.68 27.133C945.2 26.1491 945.46 24.6467 945.46 22.6257C945.46 20.9106 945.293 19.581 944.96 18.637L940.52 27.5518C941 28.2432 941.66 28.5889 942.5 28.5889Z" fill="url(#paint80_linear_122_130)" fill-opacity="0.8"/>
<path d="M943.7 51.2221H946.64V52.2792H939.02V51.2221H942.42V40.0138L939.18 41.9483L938.62 41.0509L942.62 38.5778H943.7V51.2221Z" fill="url(#paint81_linear_122_130)" fill-opacity="0.8"/>
<path d="M943.7 74.015H946.64V75.072H939.02V74.015H942.42V62.8066L939.18 64.7411L938.62 63.8437L942.62 61.3706H943.7V74.015Z" fill="url(#paint82_linear_122_130)" fill-opacity="0.8"/>
<path d="M942.5 83.964C943.927 83.964 945.006 84.569 945.74 85.7789C946.486 86.9755 946.86 88.7173 946.86 91.0041C946.86 93.291 946.486 95.0394 945.74 96.2493C945.006 97.4593 943.927 98.0642 942.5 98.0642C941.087 98.0642 940.007 97.4593 939.26 96.2493C938.514 95.0394 938.14 93.291 938.14 91.0041C938.14 88.7306 938.514 86.9888 939.26 85.7789C940.007 84.569 941.087 83.964 942.5 83.964ZM939.56 91.0041C939.56 92.6262 939.707 93.896 940 94.8134L944.44 85.9783C943.973 85.3534 943.327 85.041 942.5 85.041C941.58 85.041 940.86 85.5329 940.34 86.5168C939.82 87.4874 939.56 88.9832 939.56 91.0041ZM942.5 96.9673C943.433 96.9673 944.16 96.482 944.68 95.5114C945.2 94.5275 945.46 93.0251 945.46 91.0041C945.46 89.289 945.293 87.9594 944.96 87.0154L940.52 95.9302C941 96.6216 941.66 96.9673 942.5 96.9673Z" fill="url(#paint83_linear_122_130)" fill-opacity="0.8"/>
<path d="M943.7 119.601H946.64V120.658H939.02V119.601H942.42V108.392L939.18 110.327L938.62 109.429L942.62 106.956H943.7V119.601Z" fill="url(#paint84_linear_122_130)" fill-opacity="0.8"/>
<path d="M943.7 142.393H946.64V143.45H939.02V142.393H942.42V131.185L939.18 133.12L938.62 132.222L942.62 129.749H943.7V142.393Z" fill="url(#paint85_linear_122_130)" fill-opacity="0.8"/>
<path d="M942.5 152.342C943.927 152.342 945.006 152.947 945.74 154.157C946.486 155.354 946.86 157.096 946.86 159.383C946.86 161.669 946.486 163.418 945.74 164.628C945.006 165.838 943.927 166.443 942.5 166.443C941.087 166.443 940.007 165.838 939.26 164.628C938.514 163.418 938.14 161.669 938.14 159.383C938.14 157.109 938.514 155.367 939.26 154.157C940.007 152.947 941.087 152.342 942.5 152.342ZM939.56 159.383C939.56 161.005 939.707 162.274 940 163.192L944.44 154.357C943.973 153.732 943.327 153.419 942.5 153.419C941.58 153.419 940.86 153.911 940.34 154.895C939.82 155.866 939.56 157.362 939.56 159.383ZM942.5 165.346C943.433 165.346 944.16 164.86 944.68 163.89C945.2 162.906 945.46 161.404 945.46 159.383C945.46 157.667 945.293 156.338 944.96 155.394L940.52 164.309C941 165 941.66 165.346 942.5 165.346Z" fill="url(#paint86_linear_122_130)" fill-opacity="0.8"/>
<path d="M943.7 187.979H946.64V189.036H939.02V187.979H942.42V176.771L939.18 178.705L938.62 177.808L942.62 175.335H943.7V187.979Z" fill="url(#paint87_linear_122_130)" fill-opacity="0.8"/>
<path d="M942.5 197.928C943.927 197.928 945.006 198.533 945.74 199.743C946.486 200.94 946.86 202.681 946.86 204.968C946.86 207.255 946.486 209.003 945.74 210.213C945.006 211.423 943.927 212.028 942.5 212.028C941.087 212.028 940.007 211.423 939.26 210.213C938.514 209.003 938.14 207.255 938.14 204.968C938.14 202.695 938.514 200.953 939.26 199.743C940.007 198.533 941.087 197.928 942.5 197.928ZM939.56 204.968C939.56 206.59 939.707 207.86 940 208.777L944.44 199.942C943.973 199.317 943.327 199.005 942.5 199.005C941.58 199.005 940.86 199.497 940.34 200.481C939.82 201.451 939.56 202.947 939.56 204.968ZM942.5 210.931C943.433 210.931 944.16 210.446 944.68 209.475C945.2 208.492 945.46 206.989 945.46 204.968C945.46 203.253 945.293 201.923 944.96 200.979L940.52 209.894C941 210.586 941.66 210.931 942.5 210.931Z" fill="url(#paint88_linear_122_130)" fill-opacity="0.8"/>
<path d="M979.64 -7.2072C981.067 -7.2072 982.147 -6.60224 982.88 -5.39232C983.627 -4.1957 984 -2.45395 984 -0.167072C984 2.11981 983.627 3.86821 982.88 5.07812C982.147 6.28804 981.067 6.893 979.64 6.893C978.227 6.893 977.147 6.28804 976.401 5.07812C975.654 3.86821 975.281 2.11981 975.281 -0.167072C975.281 -2.44065 975.654 -4.1824 976.401 -5.39232C977.147 -6.60224 978.227 -7.2072 979.64 -7.2072ZM976.7 -0.167072C976.7 1.45502 976.847 2.72477 977.14 3.64218L981.58 -5.19288C981.114 -5.81779 980.467 -6.13024 979.64 -6.13024C978.72 -6.13024 978 -5.63829 977.48 -4.6544C976.96 -3.68381 976.7 -2.18803 976.7 -0.167072ZM979.64 5.7961C980.574 5.7961 981.3 5.3108 981.82 4.34021C982.34 3.35632 982.6 1.85389 982.6 -0.167072C982.6 -1.88223 982.433 -3.21181 982.1 -4.15581L977.66 4.75902C978.14 5.4504 978.8 5.7961 979.64 5.7961Z" fill="url(#paint89_linear_122_130)" fill-opacity="0.8"/>
<path d="M980.84 28.4293H983.78V29.4864H976.161V28.4293H979.56V17.221L976.321 19.1555L975.761 18.2581L979.76 15.785H980.84V28.4293Z" fill="url(#paint90_linear_122_130)" fill-opacity="0.8"/>
<path d="M980.84 51.2221H983.78V52.2792H976.161V51.2221H979.56V40.0138L976.321 41.9483L975.761 41.0509L979.76 38.5778H980.84V51.2221Z" fill="url(#paint91_linear_122_130)" fill-opacity="0.8"/>
<path d="M979.64 61.1712C981.067 61.1712 982.147 61.7762 982.88 62.9861C983.627 64.1827 984 65.9245 984 68.2113C984 70.4982 983.627 72.2466 982.88 73.4565C982.147 74.6664 981.067 75.2714 979.64 75.2714C978.227 75.2714 977.147 74.6664 976.401 73.4565C975.654 72.2466 975.281 70.4982 975.281 68.2113C975.281 65.9378 975.654 64.196 976.401 62.9861C977.147 61.7762 978.227 61.1712 979.64 61.1712ZM976.7 68.2113C976.7 69.8334 976.847 71.1032 977.14 72.0206L981.58 63.1855C981.114 62.5606 980.467 62.2482 979.64 62.2482C978.72 62.2482 978 62.7401 977.48 63.724C976.96 64.6946 976.7 66.1904 976.7 68.2113ZM979.64 74.1745C980.574 74.1745 981.3 73.6892 981.82 72.7186C982.34 71.7347 982.6 70.2323 982.6 68.2113C982.6 66.4962 982.433 65.1666 982.1 64.2226L977.66 73.1374C978.14 73.8288 978.8 74.1745 979.64 74.1745Z" fill="url(#paint92_linear_122_130)" fill-opacity="0.8"/>
<path d="M979.64 83.964C981.067 83.964 982.147 84.569 982.88 85.7789C983.627 86.9755 984 88.7173 984 91.0041C984 93.291 983.627 95.0394 982.88 96.2493C982.147 97.4593 981.067 98.0642 979.64 98.0642C978.227 98.0642 977.147 97.4593 976.401 96.2493C975.654 95.0394 975.281 93.291 975.281 91.0041C975.281 88.7306 975.654 86.9888 976.401 85.7789C977.147 84.569 978.227 83.964 979.64 83.964ZM976.7 91.0041C976.7 92.6262 976.847 93.896 977.14 94.8134L981.58 85.9783C981.114 85.3534 980.467 85.041 979.64 85.041C978.72 85.041 978 85.5329 977.48 86.5168C976.96 87.4874 976.7 88.9832 976.7 91.0041ZM979.64 96.9673C980.574 96.9673 981.3 96.482 981.82 95.5114C982.34 94.5275 982.6 93.0251 982.6 91.0041C982.6 89.289 982.433 87.9594 982.1 87.0154L977.66 95.9302C978.14 96.6216 978.8 96.9673 979.64 96.9673Z" fill="url(#paint93_linear_122_130)" fill-opacity="0.8"/>
</g>
</g>
<defs>
<filter id="filter0_d_122_130" x="0" y="0" width="1032" height="761" filterUnits="userSpaceOnUse" color-interpolation-filters="sRGB">
<feFlood flood-opacity="0" result="BackgroundImageFix"/>
<feColorMatrix in="SourceAlpha" type="matrix" values="0 0 0 0 0 0 0 0 0 0 0 0 0 0 0 0 0 0 127 0" result="hardAlpha"/>
<feOffset dy="4"/>
<feGaussianBlur stdDeviation="2"/>
<feComposite in2="hardAlpha" operator="out"/>
<feColorMatrix type="matrix" values="0 0 0 0 0 0 0 0 0 0 0 0 0 0 0 0 0 0 0.25 0"/>
<feBlend mode="normal" in2="BackgroundImageFix" result="effect1_dropShadow_122_130"/>
<feBlend mode="normal" in="SourceGraphic" in2="effect1_dropShadow_122_130" result="shape"/>
</filter>
<filter id="filter1_f_122_130" x="-554.19" y="-716.19" width="2141.38" height="1500.38" filterUnits="userSpaceOnUse" color-interpolation-filters="sRGB">
<feFlood flood-opacity="0" result="BackgroundImageFix"/>
<feBlend mode="normal" in="SourceGraphic" in2="BackgroundImageFix" result="shape"/>
<feGaussianBlur stdDeviation="200.095" result="effect1_foregroundBlur_122_130"/>
</filter>
<linearGradient id="paint0_linear_122_130" x1="56.5" y1="270" x2="56.5" y2="581.381" gradientUnits="userSpaceOnUse">
<stop stop-color="#F7DD43"/>
<stop offset="1" stop-color="#F7DD43" stop-opacity="0"/>
</linearGradient>
<linearGradient id="paint1_linear_122_130" x1="56.5" y1="270" x2="56.5" y2="581.381" gradientUnits="userSpaceOnUse">
<stop stop-color="#F7DD43"/>
<stop offset="1" stop-color="#F7DD43" stop-opacity="0"/>
</linearGradient>
<linearGradient id="paint2_linear_122_130" x1="56.5" y1="270" x2="56.5" y2="581.381" gradientUnits="userSpaceOnUse">
<stop stop-color="#F7DD43"/>
<stop offset="1" stop-color="#F7DD43" stop-opacity="0"/>
</linearGradient>
<linearGradient id="paint3_linear_122_130" x1="56.5" y1="270" x2="56.5" y2="581.381" gradientUnits="userSpaceOnUse">
<stop stop-color="#F7DD43"/>
<stop offset="1" stop-color="#F7DD43" stop-opacity="0"/>
</linearGradient>
<linearGradient id="paint4_linear_122_130" x1="56.5" y1="270" x2="56.5" y2="581.381" gradientUnits="userSpaceOnUse">
<stop stop-color="#F7DD43"/>
<stop offset="1" stop-color="#F7DD43" stop-opacity="0"/>
</linearGradient>
<linearGradient id="paint5_linear_122_130" x1="56.5" y1="270" x2="56.5" y2="581.381" gradientUnits="userSpaceOnUse">
<stop stop-color="#F7DD43"/>
<stop offset="1" stop-color="#F7DD43" stop-opacity="0"/>
</linearGradient>
<linearGradient id="paint6_linear_122_130" x1="56.5" y1="270" x2="56.5" y2="581.381" gradientUnits="userSpaceOnUse">
<stop stop-color="#F7DD43"/>
<stop offset="1" stop-color="#F7DD43" stop-opacity="0"/>
</linearGradient>
<linearGradient id="paint7_linear_122_130" x1="56.5" y1="270" x2="56.5" y2="581.381" gradientUnits="userSpaceOnUse">
<stop stop-color="#F7DD43"/>
<stop offset="1" stop-color="#F7DD43" stop-opacity="0"/>
</linearGradient>
<linearGradient id="paint8_linear_122_130" x1="56.5" y1="270" x2="56.5" y2="581.381" gradientUnits="userSpaceOnUse">
<stop stop-color="#F7DD43"/>
<stop offset="1" stop-color="#F7DD43" stop-opacity="0"/>
</linearGradient>
<linearGradient id="paint9_linear_122_130" x1="56.5" y1="270" x2="56.5" y2="581.381" gradientUnits="userSpaceOnUse">
<stop stop-color="#F7DD43"/>
<stop offset="1" stop-color="#F7DD43" stop-opacity="0"/>
</linearGradient>
<linearGradient id="paint10_linear_122_130" x1="56.5" y1="270" x2="56.5" y2="581.381" gradientUnits="userSpaceOnUse">
<stop stop-color="#F7DD43"/>
<stop offset="1" stop-color="#F7DD43" stop-opacity="0"/>
</linearGradient>
<linearGradient id="paint11_linear_122_130" x1="56.5" y1="270" x2="56.5" y2="581.381" gradientUnits="userSpaceOnUse">
<stop stop-color="#F7DD43"/>
<stop offset="1" stop-color="#F7DD43" stop-opacity="0"/>
</linearGradient>
<linearGradient id="paint12_linear_122_130" x1="56.5" y1="270" x2="56.5" y2="581.381" gradientUnits="userSpaceOnUse">
<stop stop-color="#F7DD43"/>
<stop offset="1" stop-color="#F7DD43" stop-opacity="0"/>
</linearGradient>
<linearGradient id="paint13_linear_122_130" x1="56.5" y1="270" x2="56.5" y2="581.381" gradientUnits="userSpaceOnUse">
<stop stop-color="#F7DD43"/>
<stop offset="1" stop-color="#F7DD43" stop-opacity="0"/>
</linearGradient>
<linearGradient id="paint14_linear_122_130" x1="56.5" y1="270" x2="56.5" y2="581.381" gradientUnits="userSpaceOnUse">
<stop stop-color="#F7DD43"/>
<stop offset="1" stop-color="#F7DD43" stop-opacity="0"/>
</linearGradient>
<linearGradient id="paint15_linear_122_130" x1="56.5" y1="270" x2="56.5" y2="581.381" gradientUnits="userSpaceOnUse">
<stop stop-color="#F7DD43"/>
<stop offset="1" stop-color="#F7DD43" stop-opacity="0"/>
</linearGradient>
<linearGradient id="paint16_linear_122_130" x1="56.5" y1="270" x2="56.5" y2="581.381" gradientUnits="userSpaceOnUse">
<stop stop-color="#F7DD43"/>
<stop offset="1" stop-color="#F7DD43" stop-opacity="0"/>
</linearGradient>
<linearGradient id="paint17_linear_122_130" x1="56.5" y1="270" x2="56.5" y2="581.381" gradientUnits="userSpaceOnUse">
<stop stop-color="#F7DD43"/>
<stop offset="1" stop-color="#F7DD43" stop-opacity="0"/>
</linearGradient>
<linearGradient id="paint18_linear_122_130" x1="56.5" y1="270" x2="56.5" y2="581.381" gradientUnits="userSpaceOnUse">
<stop stop-color="#F7DD43"/>
<stop offset="1" stop-color="#F7DD43" stop-opacity="0"/>
</linearGradient>
<linearGradient id="paint19_linear_122_130" x1="56.5" y1="270" x2="56.5" y2="581.381" gradientUnits="userSpaceOnUse">
<stop stop-color="#F7DD43"/>
<stop offset="1" stop-color="#F7DD43" stop-opacity="0"/>
</linearGradient>
<linearGradient id="paint20_linear_122_130" x1="56.5" y1="270" x2="56.5" y2="581.381" gradientUnits="userSpaceOnUse">
<stop stop-color="#F7DD43"/>
<stop offset="1" stop-color="#F7DD43" stop-opacity="0"/>
</linearGradient>
<linearGradient id="paint21_linear_122_130" x1="56.5" y1="270" x2="56.5" y2="581.381" gradientUnits="userSpaceOnUse">
<stop stop-color="#F7DD43"/>
<stop offset="1" stop-color="#F7DD43" stop-opacity="0"/>
</linearGradient>
<linearGradient id="paint22_linear_122_130" x1="56.5" y1="270" x2="56.5" y2="581.381" gradientUnits="userSpaceOnUse">
<stop stop-color="#F7DD43"/>
<stop offset="1" stop-color="#F7DD43" stop-opacity="0"/>
</linearGradient>
<linearGradient id="paint23_linear_122_130" x1="56.5" y1="270" x2="56.5" y2="581.381" gradientUnits="userSpaceOnUse">
<stop stop-color="#F7DD43"/>
<stop offset="1" stop-color="#F7DD43" stop-opacity="0"/>
</linearGradient>
<linearGradient id="paint24_linear_122_130" x1="56.5" y1="270" x2="56.5" y2="581.381" gradientUnits="userSpaceOnUse">
<stop stop-color="#F7DD43"/>
<stop offset="1" stop-color="#F7DD43" stop-opacity="0"/>
</linearGradient>
<linearGradient id="paint25_linear_122_130" x1="56.5" y1="270" x2="56.5" y2="581.381" gradientUnits="userSpaceOnUse">
<stop stop-color="#F7DD43"/>
<stop offset="1" stop-color="#F7DD43" stop-opacity="0"/>
</linearGradient>
<linearGradient id="paint26_linear_122_130" x1="56.5" y1="270" x2="56.5" y2="581.381" gradientUnits="userSpaceOnUse">
<stop stop-color="#F7DD43"/>
<stop offset="1" stop-color="#F7DD43" stop-opacity="0"/>
</linearGradient>
<linearGradient id="paint27_linear_122_130" x1="56.5" y1="270" x2="56.5" y2="581.381" gradientUnits="userSpaceOnUse">
<stop stop-color="#F7DD43"/>
<stop offset="1" stop-color="#F7DD43" stop-opacity="0"/>
</linearGradient>
<linearGradient id="paint28_linear_122_130" x1="56.5" y1="270" x2="56.5" y2="581.381" gradientUnits="userSpaceOnUse">
<stop stop-color="#F7DD43"/>
<stop offset="1" stop-color="#F7DD43" stop-opacity="0"/>
</linearGradient>
<linearGradient id="paint29_linear_122_130" x1="56.5" y1="270" x2="56.5" y2="581.381" gradientUnits="userSpaceOnUse">
<stop stop-color="#F7DD43"/>
<stop offset="1" stop-color="#F7DD43" stop-opacity="0"/>
</linearGradient>
<linearGradient id="paint30_linear_122_130" x1="56.5" y1="270" x2="56.5" y2="581.381" gradientUnits="userSpaceOnUse">
<stop stop-color="#F7DD43"/>
<stop offset="1" stop-color="#F7DD43" stop-opacity="0"/>
</linearGradient>
<linearGradient id="paint31_linear_122_130" x1="56.5" y1="270" x2="56.5" y2="581.381" gradientUnits="userSpaceOnUse">
<stop stop-color="#F7DD43"/>
<stop offset="1" stop-color="#F7DD43" stop-opacity="0"/>
</linearGradient>
<linearGradient id="paint32_linear_122_130" x1="56.5" y1="270" x2="56.5" y2="581.381" gradientUnits="userSpaceOnUse">
<stop stop-color="#F7DD43"/>
<stop offset="1" stop-color="#F7DD43" stop-opacity="0"/>
</linearGradient>
<linearGradient id="paint33_linear_122_130" x1="56.5" y1="270" x2="56.5" y2="581.381" gradientUnits="userSpaceOnUse">
<stop stop-color="#F7DD43"/>
<stop offset="1" stop-color="#F7DD43" stop-opacity="0"/>
</linearGradient>
<linearGradient id="paint34_linear_122_130" x1="56.5" y1="270" x2="56.5" y2="581.381" gradientUnits="userSpaceOnUse">
<stop stop-color="#F7DD43"/>
<stop offset="1" stop-color="#F7DD43" stop-opacity="0"/>
</linearGradient>
<linearGradient id="paint35_linear_122_130" x1="56.5" y1="270" x2="56.5" y2="581.381" gradientUnits="userSpaceOnUse">
<stop stop-color="#F7DD43"/>
<stop offset="1" stop-color="#F7DD43" stop-opacity="0"/>
</linearGradient>
<linearGradient id="paint36_linear_122_130" x1="56.5" y1="270" x2="56.5" y2="581.381" gradientUnits="userSpaceOnUse">
<stop stop-color="#F7DD43"/>
<stop offset="1" stop-color="#F7DD43" stop-opacity="0"/>
</linearGradient>
<linearGradient id="paint37_linear_122_130" x1="56.5" y1="270" x2="56.5" y2="581.381" gradientUnits="userSpaceOnUse">
<stop stop-color="#F7DD43"/>
<stop offset="1" stop-color="#F7DD43" stop-opacity="0"/>
</linearGradient>
<linearGradient id="paint38_linear_122_130" x1="56.5" y1="270" x2="56.5" y2="581.381" gradientUnits="userSpaceOnUse">
<stop stop-color="#F7DD43"/>
<stop offset="1" stop-color="#F7DD43" stop-opacity="0"/>
</linearGradient>
<linearGradient id="paint39_linear_122_130" x1="56.5" y1="270" x2="56.5" y2="581.381" gradientUnits="userSpaceOnUse">
<stop stop-color="#F7DD43"/>
<stop offset="1" stop-color="#F7DD43" stop-opacity="0"/>
</linearGradient>
<linearGradient id="paint40_linear_122_130" x1="56.5" y1="270" x2="56.5" y2="581.381" gradientUnits="userSpaceOnUse">
<stop stop-color="#F7DD43"/>
<stop offset="1" stop-color="#F7DD43" stop-opacity="0"/>
</linearGradient>
<linearGradient id="paint41_linear_122_130" x1="56.5" y1="270" x2="56.5" y2="581.381" gradientUnits="userSpaceOnUse">
<stop stop-color="#F7DD43"/>
<stop offset="1" stop-color="#F7DD43" stop-opacity="0"/>
</linearGradient>
<linearGradient id="paint42_linear_122_130" x1="56.5" y1="270" x2="56.5" y2="581.381" gradientUnits="userSpaceOnUse">
<stop stop-color="#F7DD43"/>
<stop offset="1" stop-color="#F7DD43" stop-opacity="0"/>
</linearGradient>
<linearGradient id="paint43_linear_122_130" x1="56.5" y1="270" x2="56.5" y2="581.381" gradientUnits="userSpaceOnUse">
<stop stop-color="#F7DD43"/>
<stop offset="1" stop-color="#F7DD43" stop-opacity="0"/>
</linearGradient>
<linearGradient id="paint44_linear_122_130" x1="56.5" y1="270" x2="56.5" y2="581.381" gradientUnits="userSpaceOnUse">
<stop stop-color="#F7DD43"/>
<stop offset="1" stop-color="#F7DD43" stop-opacity="0"/>
</linearGradient>
<linearGradient id="paint45_linear_122_130" x1="56.5" y1="270" x2="56.5" y2="581.381" gradientUnits="userSpaceOnUse">
<stop stop-color="#F7DD43"/>
<stop offset="1" stop-color="#F7DD43" stop-opacity="0"/>
</linearGradient>
<linearGradient id="paint46_linear_122_130" x1="56.5" y1="270" x2="56.5" y2="581.381" gradientUnits="userSpaceOnUse">
<stop stop-color="#F7DD43"/>
<stop offset="1" stop-color="#F7DD43" stop-opacity="0"/>
</linearGradient>
<linearGradient id="paint47_linear_122_130" x1="942.5" y1="-30" x2="942.5" y2="268.818" gradientUnits="userSpaceOnUse">
<stop stop-color="#F7DD43"/>
<stop offset="1" stop-color="#F7DD43" stop-opacity="0"/>
</linearGradient>
<linearGradient id="paint48_linear_122_130" x1="942.5" y1="-30" x2="942.5" y2="268.818" gradientUnits="userSpaceOnUse">
<stop stop-color="#F7DD43"/>
<stop offset="1" stop-color="#F7DD43" stop-opacity="0"/>
</linearGradient>
<linearGradient id="paint49_linear_122_130" x1="942.5" y1="-30" x2="942.5" y2="268.818" gradientUnits="userSpaceOnUse">
<stop stop-color="#F7DD43"/>
<stop offset="1" stop-color="#F7DD43" stop-opacity="0"/>
</linearGradient>
<linearGradient id="paint50_linear_122_130" x1="942.5" y1="-30" x2="942.5" y2="268.818" gradientUnits="userSpaceOnUse">
<stop stop-color="#F7DD43"/>
<stop offset="1" stop-color="#F7DD43" stop-opacity="0"/>
</linearGradient>
<linearGradient id="paint51_linear_122_130" x1="942.5" y1="-30" x2="942.5" y2="268.818" gradientUnits="userSpaceOnUse">
<stop stop-color="#F7DD43"/>
<stop offset="1" stop-color="#F7DD43" stop-opacity="0"/>
</linearGradient>
<linearGradient id="paint52_linear_122_130" x1="942.5" y1="-30" x2="942.5" y2="268.818" gradientUnits="userSpaceOnUse">
<stop stop-color="#F7DD43"/>
<stop offset="1" stop-color="#F7DD43" stop-opacity="0"/>
</linearGradient>
<linearGradient id="paint53_linear_122_130" x1="942.5" y1="-30" x2="942.5" y2="268.818" gradientUnits="userSpaceOnUse">
<stop stop-color="#F7DD43"/>
<stop offset="1" stop-color="#F7DD43" stop-opacity="0"/>
</linearGradient>
<linearGradient id="paint54_linear_122_130" x1="942.5" y1="-30" x2="942.5" y2="268.818" gradientUnits="userSpaceOnUse">
<stop stop-color="#F7DD43"/>
<stop offset="1" stop-color="#F7DD43" stop-opacity="0"/>
</linearGradient>
<linearGradient id="paint55_linear_122_130" x1="942.5" y1="-30" x2="942.5" y2="268.818" gradientUnits="userSpaceOnUse">
<stop stop-color="#F7DD43"/>
<stop offset="1" stop-color="#F7DD43" stop-opacity="0"/>
</linearGradient>
<linearGradient id="paint56_linear_122_130" x1="942.5" y1="-30" x2="942.5" y2="268.818" gradientUnits="userSpaceOnUse">
<stop stop-color="#F7DD43"/>
<stop offset="1" stop-color="#F7DD43" stop-opacity="0"/>
</linearGradient>
<linearGradient id="paint57_linear_122_130" x1="942.5" y1="-30" x2="942.5" y2="268.818" gradientUnits="userSpaceOnUse">
<stop stop-color="#F7DD43"/>
<stop offset="1" stop-color="#F7DD43" stop-opacity="0"/>
</linearGradient>
<linearGradient id="paint58_linear_122_130" x1="942.5" y1="-30" x2="942.5" y2="268.818" gradientUnits="userSpaceOnUse">
<stop stop-color="#F7DD43"/>
<stop offset="1" stop-color="#F7DD43" stop-opacity="0"/>
</linearGradient>
<linearGradient id="paint59_linear_122_130" x1="942.5" y1="-30" x2="942.5" y2="268.818" gradientUnits="userSpaceOnUse">
<stop stop-color="#F7DD43"/>
<stop offset="1" stop-color="#F7DD43" stop-opacity="0"/>
</linearGradient>
<linearGradient id="paint60_linear_122_130" x1="942.5" y1="-30" x2="942.5" y2="268.818" gradientUnits="userSpaceOnUse">
<stop stop-color="#F7DD43"/>
<stop offset="1" stop-color="#F7DD43" stop-opacity="0"/>
</linearGradient>
<linearGradient id="paint61_linear_122_130" x1="942.5" y1="-30" x2="942.5" y2="268.818" gradientUnits="userSpaceOnUse">
<stop stop-color="#F7DD43"/>
<stop offset="1" stop-color="#F7DD43" stop-opacity="0"/>
</linearGradient>
<linearGradient id="paint62_linear_122_130" x1="942.5" y1="-30" x2="942.5" y2="268.818" gradientUnits="userSpaceOnUse">
<stop stop-color="#F7DD43"/>
<stop offset="1" stop-color="#F7DD43" stop-opacity="0"/>
</linearGradient>
<linearGradient id="paint63_linear_122_130" x1="942.5" y1="-30" x2="942.5" y2="268.818" gradientUnits="userSpaceOnUse">
<stop stop-color="#F7DD43"/>
<stop offset="1" stop-color="#F7DD43" stop-opacity="0"/>
</linearGradient>
<linearGradient id="paint64_linear_122_130" x1="942.5" y1="-30" x2="942.5" y2="268.818" gradientUnits="userSpaceOnUse">
<stop stop-color="#F7DD43"/>
<stop offset="1" stop-color="#F7DD43" stop-opacity="0"/>
</linearGradient>
<linearGradient id="paint65_linear_122_130" x1="942.5" y1="-30" x2="942.5" y2="268.818" gradientUnits="userSpaceOnUse">
<stop stop-color="#F7DD43"/>
<stop offset="1" stop-color="#F7DD43" stop-opacity="0"/>
</linearGradient>
<linearGradient id="paint66_linear_122_130" x1="942.5" y1="-30" x2="942.5" y2="268.818" gradientUnits="userSpaceOnUse">
<stop stop-color="#F7DD43"/>
<stop offset="1" stop-color="#F7DD43" stop-opacity="0"/>
</linearGradient>
<linearGradient id="paint67_linear_122_130" x1="942.5" y1="-30" x2="942.5" y2="268.818" gradientUnits="userSpaceOnUse">
<stop stop-color="#F7DD43"/>
<stop offset="1" stop-color="#F7DD43" stop-opacity="0"/>
</linearGradient>
<linearGradient id="paint68_linear_122_130" x1="942.5" y1="-30" x2="942.5" y2="268.818" gradientUnits="userSpaceOnUse">
<stop stop-color="#F7DD43"/>
<stop offset="1" stop-color="#F7DD43" stop-opacity="0"/>
</linearGradient>
<linearGradient id="paint69_linear_122_130" x1="942.5" y1="-30" x2="942.5" y2="268.818" gradientUnits="userSpaceOnUse">
<stop stop-color="#F7DD43"/>
<stop offset="1" stop-color="#F7DD43" stop-opacity="0"/>
</linearGradient>
<linearGradient id="paint70_linear_122_130" x1="942.5" y1="-30" x2="942.5" y2="268.818" gradientUnits="userSpaceOnUse">
<stop stop-color="#F7DD43"/>
<stop offset="1" stop-color="#F7DD43" stop-opacity="0"/>
</linearGradient>
<linearGradient id="paint71_linear_122_130" x1="942.5" y1="-30" x2="942.5" y2="268.818" gradientUnits="userSpaceOnUse">
<stop stop-color="#F7DD43"/>
<stop offset="1" stop-color="#F7DD43" stop-opacity="0"/>
</linearGradient>
<linearGradient id="paint72_linear_122_130" x1="942.5" y1="-30" x2="942.5" y2="268.818" gradientUnits="userSpaceOnUse">
<stop stop-color="#F7DD43"/>
<stop offset="1" stop-color="#F7DD43" stop-opacity="0"/>
</linearGradient>
<linearGradient id="paint73_linear_122_130" x1="942.5" y1="-30" x2="942.5" y2="268.818" gradientUnits="userSpaceOnUse">
<stop stop-color="#F7DD43"/>
<stop offset="1" stop-color="#F7DD43" stop-opacity="0"/>
</linearGradient>
<linearGradient id="paint74_linear_122_130" x1="942.5" y1="-30" x2="942.5" y2="268.818" gradientUnits="userSpaceOnUse">
<stop stop-color="#F7DD43"/>
<stop offset="1" stop-color="#F7DD43" stop-opacity="0"/>
</linearGradient>
<linearGradient id="paint75_linear_122_130" x1="942.5" y1="-30" x2="942.5" y2="268.818" gradientUnits="userSpaceOnUse">
<stop stop-color="#F7DD43"/>
<stop offset="1" stop-color="#F7DD43" stop-opacity="0"/>
</linearGradient>
<linearGradient id="paint76_linear_122_130" x1="942.5" y1="-30" x2="942.5" y2="268.818" gradientUnits="userSpaceOnUse">
<stop stop-color="#F7DD43"/>
<stop offset="1" stop-color="#F7DD43" stop-opacity="0"/>
</linearGradient>
<linearGradient id="paint77_linear_122_130" x1="942.5" y1="-30" x2="942.5" y2="268.818" gradientUnits="userSpaceOnUse">
<stop stop-color="#F7DD43"/>
<stop offset="1" stop-color="#F7DD43" stop-opacity="0"/>
</linearGradient>
<linearGradient id="paint78_linear_122_130" x1="942.5" y1="-30" x2="942.5" y2="268.818" gradientUnits="userSpaceOnUse">
<stop stop-color="#F7DD43"/>
<stop offset="1" stop-color="#F7DD43" stop-opacity="0"/>
</linearGradient>
<linearGradient id="paint79_linear_122_130" x1="942.5" y1="-30" x2="942.5" y2="268.818" gradientUnits="userSpaceOnUse">
<stop stop-color="#F7DD43"/>
<stop offset="1" stop-color="#F7DD43" stop-opacity="0"/>
</linearGradient>
<linearGradient id="paint80_linear_122_130" x1="942.5" y1="-30" x2="942.5" y2="268.818" gradientUnits="userSpaceOnUse">
<stop stop-color="#F7DD43"/>
<stop offset="1" stop-color="#F7DD43" stop-opacity="0"/>
</linearGradient>
<linearGradient id="paint81_linear_122_130" x1="942.5" y1="-30" x2="942.5" y2="268.818" gradientUnits="userSpaceOnUse">
<stop stop-color="#F7DD43"/>
<stop offset="1" stop-color="#F7DD43" stop-opacity="0"/>
</linearGradient>
<linearGradient id="paint82_linear_122_130" x1="942.5" y1="-30" x2="942.5" y2="268.818" gradientUnits="userSpaceOnUse">
<stop stop-color="#F7DD43"/>
<stop offset="1" stop-color="#F7DD43" stop-opacity="0"/>
</linearGradient>
<linearGradient id="paint83_linear_122_130" x1="942.5" y1="-30" x2="942.5" y2="268.818" gradientUnits="userSpaceOnUse">
<stop stop-color="#F7DD43"/>
<stop offset="1" stop-color="#F7DD43" stop-opacity="0"/>
</linearGradient>
<linearGradient id="paint84_linear_122_130" x1="942.5" y1="-30" x2="942.5" y2="268.818" gradientUnits="userSpaceOnUse">
<stop stop-color="#F7DD43"/>
<stop offset="1" stop-color="#F7DD43" stop-opacity="0"/>
</linearGradient>
<linearGradient id="paint85_linear_122_130" x1="942.5" y1="-30" x2="942.5" y2="268.818" gradientUnits="userSpaceOnUse">
<stop stop-color="#F7DD43"/>
<stop offset="1" stop-color="#F7DD43" stop-opacity="0"/>
</linearGradient>
<linearGradient id="paint86_linear_122_130" x1="942.5" y1="-30" x2="942.5" y2="268.818" gradientUnits="userSpaceOnUse">
<stop stop-color="#F7DD43"/>
<stop offset="1" stop-color="#F7DD43" stop-opacity="0"/>
</linearGradient>
<linearGradient id="paint87_linear_122_130" x1="942.5" y1="-30" x2="942.5" y2="268.818" gradientUnits="userSpaceOnUse">
<stop stop-color="#F7DD43"/>
<stop offset="1" stop-color="#F7DD43" stop-opacity="0"/>
</linearGradient>
<linearGradient id="paint88_linear_122_130" x1="942.5" y1="-30" x2="942.5" y2="268.818" gradientUnits="userSpaceOnUse">
<stop stop-color="#F7DD43"/>
<stop offset="1" stop-color="#F7DD43" stop-opacity="0"/>
</linearGradient>
<linearGradient id="paint89_linear_122_130" x1="942.5" y1="-30" x2="942.5" y2="268.818" gradientUnits="userSpaceOnUse">
<stop stop-color="#F7DD43"/>
<stop offset="1" stop-color="#F7DD43" stop-opacity="0"/>
</linearGradient>
<linearGradient id="paint90_linear_122_130" x1="942.5" y1="-30" x2="942.5" y2="268.818" gradientUnits="userSpaceOnUse">
<stop stop-color="#F7DD43"/>
<stop offset="1" stop-color="#F7DD43" stop-opacity="0"/>
</linearGradient>
<linearGradient id="paint91_linear_122_130" x1="942.5" y1="-30" x2="942.5" y2="268.818" gradientUnits="userSpaceOnUse">
<stop stop-color="#F7DD43"/>
<stop offset="1" stop-color="#F7DD43" stop-opacity="0"/>
</linearGradient>
<linearGradient id="paint92_linear_122_130" x1="942.5" y1="-30" x2="942.5" y2="268.818" gradientUnits="userSpaceOnUse">
<stop stop-color="#F7DD43"/>
<stop offset="1" stop-color="#F7DD43" stop-opacity="0"/>
</linearGradient>
<linearGradient id="paint93_linear_122_130" x1="942.5" y1="-30" x2="942.5" y2="268.818" gradientUnits="userSpaceOnUse">
<stop stop-color="#F7DD43"/>
<stop offset="1" stop-color="#F7DD43" stop-opacity="0"/>
</linearGradient>
<clipPath id="clip0_122_130">
<rect width="1024" height="753" fill="white" transform="translate(4)"/>
</clipPath>
</defs>
</svg>
